<?xml version="1.0" encoding="UTF-8"?>
<svg id="uuid-d8eb855d-1634-4134-84fa-54d78ced3a6c" data-name="Capa 2" xmlns="http://www.w3.org/2000/svg" viewBox="0 0 23.29 23.15">
  <defs>
    <style>
      .uuid-3baed3cc-717f-4390-bb79-501990ce9c3b {
        fill: #fff;
      }
    </style>
  </defs>
  <g id="uuid-887d4b6c-39f1-44ca-92ff-a43d7ea59631" data-name="Capa 5">
    <path class="uuid-3baed3cc-717f-4390-bb79-501990ce9c3b" d="M23.29,11.5c-.03-2.22-.69-4.39-1.91-6.24s-2.94-3.33-4.96-4.24C14.4.11,12.16-.2,9.96.12c-2.2.32-4.26,1.26-5.93,2.72-1.68,1.45-2.91,3.35-3.54,5.48-.63,2.13-.65,4.39-.04,6.53.61,2.13,1.82,4.05,3.48,5.52,1.66,1.47,3.71,2.44,5.9,2.78v-8.25h-2.91v-3.39h2.91v-2.58c-.07-.6,0-1.21.19-1.78.19-.57.51-1.09.93-1.53.42-.44.92-.78,1.49-.99.56-.22,1.17-.31,1.77-.27.87.01,1.74.09,2.61.23v2.91h-1.46c-.25-.03-.51,0-.75.07-.24.08-.46.21-.64.39-.18.18-.32.39-.41.63-.09.24-.12.49-.1.74v2.2h3.23l-.52,3.39h-2.69v8.15c2.75-.44,5.26-1.84,7.06-3.97,1.8-2.12,2.79-4.82,2.77-7.61Z"/>
  </g>
</svg>