<?xml version="1.0" encoding="UTF-8"?>
<svg id="uuid-43ba156d-59c2-4091-9389-a36473fd55c5" data-name="Capa 2" xmlns="http://www.w3.org/2000/svg" viewBox="0 0 23.33 23.33">
  <defs>
    <style>
      .uuid-994f56ce-a167-4630-a4d6-57c0ef590aeb {
        fill: #fff;
      }
    </style>
  </defs>
  <g id="uuid-a1ea819a-6cb2-4a19-a8d4-5a765a07135a" data-name="Capa 5">
    <g>
      <path class="uuid-994f56ce-a167-4630-a4d6-57c0ef590aeb" d="M17.21,7.2c-.25-.49-.64-.88-1.13-1.13-.2-.1-.49-.19-1.06-.23-.58-.05-1.34-.05-2.45-.05h-1.81c-1.11,0-1.86,0-2.45.05-.57.05-.86.13-1.06.23-.49.25-.88.64-1.13,1.13-.1.2-.19.49-.23,1.06-.05.58-.05,1.34-.05,2.45v1.81c0,1.11,0,1.86.05,2.45.05.57.13.86.23,1.06.25.49.64.88,1.13,1.13.2.1.49.19,1.06.23.58.05,1.34.05,2.45.05h1.81c1.11,0,1.86,0,2.45-.05.57-.05.86-.13,1.06-.23.49-.25.88-.64,1.13-1.13.1-.2.19-.49.23-1.06.05-.58.05-1.34.05-2.45v-1.81c0-1.11,0-1.86-.05-2.45-.05-.57-.13-.86-.23-1.06ZM11.66,15.5c-2.15,0-3.89-1.74-3.89-3.89s1.74-3.89,3.89-3.89,3.89,1.74,3.89,3.89-1.74,3.89-3.89,3.89ZM15.55,8.38c-.36,0-.65-.29-.65-.65s.29-.65.65-.65.65.29.65.65-.29.65-.65.65Z"/>
      <circle class="uuid-994f56ce-a167-4630-a4d6-57c0ef590aeb" cx="11.66" cy="11.62" r="2.59"/>
      <path class="uuid-994f56ce-a167-4630-a4d6-57c0ef590aeb" d="M11.66,0C5.22,0,0,5.22,0,11.66s5.22,11.66,11.66,11.66,11.66-5.22,11.66-11.66S18.1,0,11.66,0ZM18.79,12.52c0,2.18,0,3.26-.42,4.1-.37.73-.97,1.33-1.7,1.7-.83.42-1.92.42-4.1.42h-1.81c-2.18,0-3.26,0-4.1-.42-.73-.37-1.33-.97-1.7-1.7-.42-.83-.42-1.92-.42-4.1v-1.81c0-2.18,0-3.26.42-4.1.37-.73.97-1.33,1.7-1.7.83-.42,1.92-.42,4.1-.42h1.81c2.18,0,3.26,0,4.1.42.73.37,1.33.97,1.7,1.7.42.83.42,1.92.42,4.1v1.81Z"/>
    </g>
  </g>
</svg>